<?xml version="1.0" encoding="UTF-8"?>
<svg width="400px" height="400px" viewBox="0 0 400 400" version="1.1" xmlns="http://www.w3.org/2000/svg" xmlns:xlink="http://www.w3.org/1999/xlink">
    <!-- Generator: Sketch 48.2 (47327) - http://www.bohemiancoding.com/sketch -->
    <title>Artboard 4</title>
    <desc>Created with Sketch.</desc>
    <defs>
        <circle id="path-1" cx="130.5" cy="130.5" r="130.5"></circle>
    </defs>
    <g id="Page-1" stroke="none" stroke-width="1" fill="none" fill-rule="evenodd">
        <g id="Artboard-4">
            <g id="Rectangle-6-+-Rectangle-6-Mask" transform="translate(70.000000, 70.000000)">
                <mask id="mask-2" fill="white">
                    <use xlink:href="#path-1"></use>
                </mask>
                <use id="Mask" fill="#000000" xlink:href="#path-1"></use>
                <polygon id="Rectangle-6" fill="#2F2F2F" mask="url(#mask-2)" transform="translate(140.859109, 219.050831) rotate(-40.000000) translate(-140.859109, -219.050831) " points="94.0867536 120.994482 149.329242 69.160562 187.631464 101.299942 183.628551 368.941099 94.5564371 368.941099"></polygon>
                <polygon id="Rectangle-6" fill="#2F2F2F" mask="url(#mask-2)" transform="translate(236.731483, 222.127723) rotate(-40.000000) translate(-236.731483, -222.127723) " points="191.911426 120.387542 239.468449 104.160109 279.981311 88.5489597 281.55154 355.706486 192.479427 355.706486"></polygon>
            </g>
            <g id="Group-2" transform="translate(206.000000, 162.000000)">
                <path d="M52.9671897,66.6813187 L25.863766,66.6813187 L21.1305278,82 L0,82 L30.0898716,0 L48.6847361,0 L79,82 L57.756776,82 L52.9671897,66.6813187 Z M30.5970043,51.418956 L48.2339515,51.418956 L39.3873039,22.978022 L30.5970043,51.418956 Z" id="A" fill="#F1133E"></path>
                <polygon id="Path-4" fill="#2F2F2F" points="46.8999939 47 56.2000122 77.4 50.6 79 41 48.6"></polygon>
            </g>
            <ellipse id="Oval" fill="#FFFFFF" cx="191.5" cy="237" rx="7.5" ry="8"></ellipse>
            <ellipse id="Oval-Copy" fill="#FFFFFF" cx="296.5" cy="236" rx="7.5" ry="8"></ellipse>
            <path d="M143.335605,214.346154 L132.330494,214.346154 L132.330494,244 L112,244 L112,160 L145.189097,160 C155.190283,160 163.009625,162.211516 168.647359,166.634615 C174.285093,171.057714 177.103918,177.307652 177.103918,185.384615 C177.103918,191.230798 175.916537,196.076904 173.541738,199.923077 C171.166939,203.76925 167.450338,206.884603 162.391823,209.269231 L180,243.134615 L180,244 L158.221465,244 L143.335605,214.346154 Z M132.330494,198.711538 L145.189097,198.711538 C149.050559,198.711538 151.956265,197.701933 153.906303,195.682692 C155.856341,193.663451 156.831346,190.846172 156.831346,187.230769 C156.831346,183.615367 155.846688,180.778856 153.877342,178.721154 C151.907997,176.663451 149.011944,175.634615 145.189097,175.634615 L132.330494,175.634615 L132.330494,198.711538 Z" id="R" fill="#F1133E"></path>
        </g>
    </g>
</svg>